<?xml version="1.0" standalone="no"?><!DOCTYPE svg PUBLIC "-//W3C//DTD SVG 1.1//EN" "http://www.w3.org/Graphics/SVG/1.1/DTD/svg11.dtd"><svg t="1718509954458" class="icon" viewBox="0 0 1024 1024" version="1.1" xmlns="http://www.w3.org/2000/svg" p-id="5167" xmlns:xlink="http://www.w3.org/1999/xlink" width="200" height="200"><path d="M640 64c-77.6 92.8-148.8 190.4-212.8 292.8-116-32.8-235.2-53.6-356-64 8.8 116 28 231.2 56.8 344v3.2c12.8 53.6 36.8 104 72 147.2 51.2 51.2 120 79.2 192 79.2h25.6C476 926.4 556 960 640 960c180.8-4.8 324-155.2 320-336 0-185.6-320-560-320-560z m-32 466.4L476 398.4c40.8-66.4 84.8-130.4 132-192v324z m64-324c67.2 86.4 126.4 178.4 177.6 275.2L672 658.4V206.4zM343.2 521.6L192 372.8c67.2 8.8 134.4 22.4 200 40-19.2 35.2-35.2 72-48.8 108.8zM306.4 576h-128c-12-49.6-22.4-104.8-30.4-158.4L306.4 576z m-60 165.6c-24-29.6-40.8-64.8-50.4-101.6H320c2.4 56 19.2 111.2 47.2 160-45.6-4.8-88-25.6-120.8-58.4zM384 824.8c6.4 8.8 12.8 17.6 20 25.6-7.2-8-13.6-16.8-20-25.6zM384 624c7.2-59.2 27.2-116.8 59.2-168L608 621.6V896c-132.8-21.6-228-137.6-224-272z m288 268.8V749.6L877.6 544c10.4 25.6 16.8 52.8 18.4 80 4 134.4-91.2 250.4-224 272v-3.2z" p-id="5168" fill="#1296db"></path></svg>